<?xml version="1.0" encoding="UTF-8" ?>
<!DOCTYPE svg PUBLIC "-//W3C//DTD SVG 1.1//EN" "http://www.w3.org/Graphics/SVG/1.1/DTD/svg11.dtd">
<svg width="780pt" height="778pt" viewBox="0 0 780 778" version="1.1" xmlns="http://www.w3.org/2000/svg">
<path fill="#ffffff" d=" M 0.00 0.00 L 780.00 0.00 L 780.00 778.00 L 0.00 778.00 L 0.00 0.00 Z" />
<path fill="#e05446" d=" M 262.39 173.32 C 269.15 169.38 277.73 168.80 284.94 171.87 C 291.86 174.58 297.20 180.18 300.97 186.46 C 306.76 184.47 313.19 185.42 318.41 188.53 C 324.84 192.17 330.32 197.38 334.69 203.32 C 335.31 204.09 336.06 204.72 336.94 205.22 C 338.87 200.21 342.90 195.56 348.42 194.59 C 356.03 193.02 363.93 199.11 364.99 206.66 C 369.38 205.84 373.64 204.34 378.16 204.30 C 380.73 199.02 385.71 194.10 391.99 194.40 C 400.64 194.38 407.28 203.03 406.81 211.32 C 416.01 212.04 423.18 220.57 422.83 229.69 C 342.27 229.73 261.70 229.68 181.14 229.72 C 181.57 219.21 187.64 208.91 196.89 203.80 C 204.17 199.54 213.26 199.48 221.03 202.44 C 223.27 199.19 225.94 196.11 229.50 194.27 C 235.48 190.91 242.52 190.87 249.18 190.72 C 251.12 183.52 255.85 177.00 262.39 173.32 Z" />
<path fill="#2d2d2d" d=" M 171.49 236.46 C 256.92 236.41 342.35 236.44 427.78 236.45 C 427.26 244.96 425.99 253.42 424.84 261.86 C 423.07 278.55 421.04 295.24 418.84 311.86 C 418.37 317.52 417.76 323.19 416.84 328.79 C 416.69 330.24 416.57 331.69 416.45 333.14 C 409.90 332.35 403.35 331.52 396.82 330.58 C 396.82 306.62 396.83 282.65 396.82 258.68 C 387.37 258.68 377.93 258.67 368.48 258.69 C 368.75 269.45 368.33 280.25 369.29 290.99 C 369.50 303.12 369.70 315.26 369.75 327.39 C 365.79 328.19 361.55 329.58 359.11 333.03 C 355.89 337.06 355.94 342.42 355.24 347.28 C 354.67 352.08 353.44 357.20 355.53 361.83 C 357.51 366.43 362.08 369.26 366.78 370.45 C 367.37 391.61 367.21 412.78 367.33 433.94 C 367.49 472.95 367.67 511.95 367.79 550.96 C 367.68 555.38 371.75 558.28 375.35 559.96 C 320.44 559.81 265.53 559.96 210.62 559.88 C 210.39 558.59 210.13 557.31 209.87 556.04 C 209.56 553.08 209.64 550.07 208.86 547.18 C 208.61 544.48 208.52 541.75 207.87 539.10 C 207.32 533.45 206.77 527.78 205.86 522.18 C 205.60 519.48 205.52 516.75 204.87 514.11 C 204.36 508.45 203.83 502.77 202.86 497.19 C 202.59 494.48 202.60 491.74 201.87 489.11 C 201.35 483.45 200.82 477.77 199.86 472.18 C 199.59 469.48 199.60 466.74 198.87 464.11 C 198.35 458.45 197.82 452.77 196.86 447.19 C 196.61 444.48 196.57 441.74 195.87 439.11 C 195.10 430.75 194.11 422.40 192.87 414.11 C 192.36 408.45 191.82 402.77 190.86 397.18 C 190.58 394.48 190.60 391.74 189.87 389.11 C 189.09 380.73 188.10 372.36 186.88 364.04 C 186.34 358.41 185.84 352.74 184.86 347.18 C 184.61 344.46 184.55 341.70 183.88 339.05 C 183.35 333.41 182.84 327.75 181.86 322.18 C 181.61 319.46 181.57 316.70 180.88 314.04 C 180.11 305.69 179.06 297.34 177.88 289.04 C 177.36 283.41 176.82 277.75 175.86 272.18 C 174.95 261.39 173.17 250.70 172.21 239.91 C 172.03 239.05 171.67 237.33 171.49 236.46 Z" />
<path fill="#e05446" d=" M 516.85 249.86 C 522.42 246.79 530.00 248.08 534.16 252.93 C 538.27 257.20 538.81 264.00 536.40 269.25 C 533.78 273.60 529.23 276.21 525.38 279.32 C 514.38 288.47 502.75 296.81 491.65 305.82 C 490.09 317.93 488.57 330.05 486.98 342.16 C 506.02 344.67 525.09 346.95 544.11 349.55 C 551.12 350.44 557.08 356.73 556.77 363.95 C 556.44 369.68 555.63 375.39 554.67 381.04 C 553.24 388.18 545.91 393.20 538.76 392.37 C 523.17 450.61 507.75 508.89 492.22 567.15 C 491.26 570.90 487.50 572.98 483.91 573.51 C 480.29 573.85 476.65 573.45 473.08 572.85 C 448.03 569.66 422.99 566.42 397.94 563.26 C 390.43 561.99 382.73 561.87 375.35 559.96 C 371.75 558.28 367.68 555.38 367.79 550.96 C 367.67 511.95 367.49 472.95 367.33 433.94 C 367.21 412.78 367.37 391.61 366.78 370.45 C 362.08 369.26 357.51 366.43 355.53 361.83 C 353.44 357.20 354.67 352.08 355.24 347.28 C 355.94 342.42 355.89 337.06 359.11 333.03 C 361.55 329.58 365.79 328.19 369.75 327.39 C 378.82 328.06 387.78 329.66 396.82 330.58 C 403.35 331.52 409.90 332.35 416.45 333.14 C 430.36 334.92 444.26 336.75 458.18 338.45 C 459.93 324.92 461.65 311.38 463.38 297.84 C 463.84 294.69 464.68 291.39 466.86 288.97 C 470.81 284.48 475.93 281.29 480.54 277.55 C 489.56 270.56 498.59 263.58 507.63 256.60 C 510.64 254.27 513.54 251.77 516.85 249.86 Z" />
<path fill="#ffffff" d=" M 202.49 331.03 C 202.50 306.91 202.48 282.80 202.50 258.68 C 212.16 258.69 221.82 258.65 231.48 258.71 C 231.03 263.09 231.83 267.57 230.83 271.89 C 230.60 284.95 230.54 298.01 230.24 311.07 C 229.42 316.65 229.79 322.31 229.64 327.93 C 229.46 338.29 229.38 348.64 229.13 358.99 C 227.96 371.59 229.13 384.34 227.83 396.90 C 227.40 412.25 227.88 427.66 226.71 442.98 C 226.60 457.65 226.45 472.32 226.01 486.99 C 225.15 500.29 225.64 513.68 225.07 527.01 C 224.68 530.07 224.16 533.14 224.40 536.25 C 223.21 523.44 221.53 510.67 220.43 497.85 C 219.30 494.58 219.87 491.08 219.26 487.73 C 218.58 484.43 218.56 481.07 218.27 477.74 C 217.48 474.82 217.59 471.79 217.27 468.82 C 215.36 453.50 213.66 438.13 212.27 422.75 C 211.46 419.82 211.60 416.77 211.26 413.79 C 210.57 411.20 210.60 408.50 210.39 405.85 C 209.11 396.52 208.14 387.11 207.30 377.71 C 206.46 374.45 206.62 371.06 206.26 367.74 C 205.47 364.82 205.60 361.77 205.26 358.80 C 204.48 355.84 204.63 352.77 204.26 349.77 C 203.60 347.16 203.58 344.46 203.39 341.80 C 202.41 338.29 202.57 334.63 202.49 331.03 Z" />
<path fill="#ffffff" d=" M 285.50 537.67 C 285.48 444.67 285.48 351.68 285.50 258.68 C 295.16 258.69 304.82 258.65 314.48 258.70 C 314.48 351.67 314.46 444.65 314.49 537.62 C 304.83 537.73 295.16 537.64 285.50 537.67 Z" />
<path fill="#ffffff" d=" M 368.48 258.69 C 377.93 258.67 387.37 258.68 396.82 258.68 C 396.83 282.65 396.82 306.62 396.82 330.58 C 387.78 329.66 378.82 328.06 369.75 327.39 C 369.70 315.26 369.50 303.12 369.29 290.99 C 368.33 280.25 368.75 269.45 368.48 258.69 Z" />
<path fill="#2d2d2d" d=" M 394.09 373.72 C 397.79 374.12 401.49 374.60 405.18 375.09 C 405.36 378.39 405.25 381.69 404.94 384.98 C 404.46 400.89 404.92 416.83 403.97 432.73 C 403.81 441.87 402.18 450.87 401.23 459.94 C 399.57 473.90 397.86 487.85 396.22 501.81 C 395.04 511.10 393.83 520.41 393.51 529.77 L 393.51 529.84 C 392.80 527.57 393.21 525.19 393.33 522.88 C 393.22 480.25 393.76 437.60 393.82 394.96 C 394.26 387.89 394.32 380.80 394.09 373.72 Z" />
<path fill="#ffffff" d=" M 418.84 376.87 C 448.89 380.70 478.94 384.52 508.98 388.41 C 496.36 439.61 483.16 490.67 470.37 541.83 C 463.18 541.61 456.12 540.13 448.98 539.41 C 430.41 536.95 411.78 534.86 393.25 532.14 C 393.31 531.55 393.45 530.36 393.51 529.77 C 393.83 520.41 395.04 511.10 396.22 501.81 C 397.86 487.85 399.57 473.90 401.23 459.94 C 402.18 450.87 403.81 441.87 403.97 432.73 C 404.41 438.47 404.26 444.24 403.80 449.99 C 403.82 459.99 403.42 470.01 403.60 480.01 C 403.62 483.59 407.19 485.19 409.95 486.49 C 412.36 485.70 415.04 484.86 416.38 482.51 C 417.04 480.72 417.12 478.78 417.27 476.91 C 417.58 461.63 417.36 446.33 418.14 431.06 C 418.30 412.99 418.41 394.93 418.84 376.87 Z" />
</svg>
